<?xml version="1.0" encoding="utf-8"?>
<!-- Generator: Adobe Illustrator 27.5.0, SVG Export Plug-In . SVG Version: 6.00 Build 0)  -->
<svg version="1.1" id="Layer_1" xmlns="http://www.w3.org/2000/svg" xmlns:xlink="http://www.w3.org/1999/xlink" x="0px" y="0px"
	 viewBox="0 0 355.579 343.496" style="enable-background:new 0 0 355.579 343.496;" xml:space="preserve">
<g>
	<g>
		<g>
			<path style="fill:#606E74;" d="M138.004,263.34c-6.569-5.832-14.651-9.224-22.467-12.505c-5.216-2.189-10.609-4.453-15.372-7.396
				c-9.41-5.813-17.125-14.834-21.726-25.403c-3.964-9.108-5.661-19.253-4.982-29.557c-0.096-0.37-0.207-0.737-0.341-1.097
				c-0.216-0.581-0.506-1.173-0.96-1.606c-0.369-0.351-0.932-0.507-1.413-0.517c-0.428-0.009-0.769,0.097-1.133,0.366
				c-0.307,0.227-0.599,0.62-0.814,1.002c-0.165,0.294-0.298,0.604-0.417,0.921c-0.839,11.323,0.986,22.503,5.353,32.537
				c5.014,11.518,13.443,21.364,23.735,27.722c5.104,3.153,10.686,5.496,16.084,7.761c7.772,3.262,15.113,6.343,21.045,11.61
				c5.829,5.175,9.845,12.243,11.306,19.901l5.043-0.963C149.272,277.353,144.676,269.263,138.004,263.34z"/>
			<path style="fill:#3C484D;" d="M69.159,185.135c-0.471-1.419-0.894-2.853-1.209-4.315c-0.62-2.877-0.876-5.802-0.493-8.732
				c0.039-0.302-0.43-0.138-0.492,0.049c-0.943,2.856-0.853,5.931-0.313,8.862c0.279,1.512,0.675,3.008,1.143,4.472
				c0.229,0.717,0.483,1.426,0.746,2.131c0.256,0.685,0.488,1.385,0.99,1.928c0.26,0.28,0.875,0.008,0.856-0.379
				C70.321,187.781,69.588,186.431,69.159,185.135z"/>
			<path style="fill:#3C484D;" d="M70.755,192.022c-0.309-0.479-0.913-0.791-1.334-1.169c-0.5-0.449-0.947-0.955-1.363-1.481
				c-0.93-1.177-1.708-2.486-2.352-3.839c-0.642-1.348-1.166-2.785-1.507-4.24c-0.302-1.288-0.605-2.739-0.305-4.053
				c0.046-0.203-0.251-0.157-0.292-0.005c-0.813,2.981-0.185,6.01,1.017,8.803c0.636,1.477,1.419,2.892,2.403,4.167
				c0.737,0.954,1.846,2.417,3.12,2.598C70.494,192.852,70.977,192.366,70.755,192.022z"/>
			<path style="fill:#3C484D;" d="M73.537,172.694c0.14-0.451-0.529-0.325-0.652-0.012c-1.013,2.587-1.694,5.266-1.971,8.035
				c-0.14,1.4-0.205,2.82-0.112,4.226c0.044,0.671,0.119,1.341,0.236,2.003c0.102,0.576,0.18,1.29,0.555,1.76
				c0.335,0.419,1.104-0.029,1.116-0.494c0.016-0.593-0.213-1.178-0.32-1.758c-0.116-0.629-0.189-1.264-0.234-1.901
				c-0.098-1.367-0.08-2.739,0.026-4.105C72.384,177.855,72.762,175.184,73.537,172.694z"/>
			<path style="fill:#3C484D;" d="M78.507,178.687c-0.627,2.43-1.572,4.883-2.673,7.135c-0.55,1.124-1.165,2.222-1.861,3.262
				c-0.34,0.507-0.699,1.002-1.089,1.472c-0.342,0.413-0.825,0.796-0.909,1.347c-0.039,0.255,0.266,0.402,0.479,0.337
				c0.61-0.185,0.977-0.685,1.366-1.166c0.393-0.486,0.767-0.989,1.116-1.508c0.746-1.108,1.379-2.28,1.941-3.49
				c1.118-2.407,1.805-4.871,2.337-7.46C79.296,178.215,78.584,178.389,78.507,178.687z"/>
			<path style="fill:#3C484D;" d="M80.118,187.373c-1.247,1.735-2.659,3.371-4.102,4.945c-0.695,0.758-1.417,1.489-2.15,2.21
				c-0.357,0.351-0.717,0.699-1.084,1.04c-0.384,0.357-0.901,0.709-1.135,1.186c-0.221,0.451,0.133,0.758,0.584,0.58
				c0.516-0.204,0.922-0.668,1.313-1.05c0.376-0.368,0.746-0.741,1.109-1.121c0.742-0.777,1.442-1.596,2.122-2.427
				c1.364-1.67,2.545-3.448,3.722-5.252C80.674,187.211,80.257,187.18,80.118,187.373z"/>
			<g>
				<path style="fill:#3C484D;" d="M70.927,195.14c0.087-0.16,0.049-0.325-0.078-0.433c0.025,0.036,0.05,0.072,0.075,0.107
					c-0.024-0.048-0.054-0.085-0.087-0.116c-0.027-0.022-0.052-0.046-0.086-0.061c0.019,0.007,0.038,0.015,0.057,0.022
					c-0.068-0.049-0.15-0.077-0.254-0.088c-0.062-0.009-0.124-0.005-0.186,0.012c0.091-0.008,0.104-0.011,0.041-0.008
					c-0.049-0.008-0.105-0.002-0.155-0.004c-0.041-0.001-0.083-0.005-0.123-0.004c-0.017-0.002-0.018-0.002-0.024-0.002
					c-0.016-0.003-0.032-0.006-0.047-0.009c-0.21-0.05-0.427-0.13-0.564-0.199c-0.501-0.253-0.961-0.594-1.397-0.946
					c-0.458-0.369-0.892-0.766-1.321-1.168c-0.337-0.316-0.644-0.655-0.97-0.98c-0.201-0.2-0.671,0.138-0.477,0.334
					c0.624,0.634,1.125,1.368,1.698,2.046c0.622,0.738,1.313,1.504,2.216,1.894c0.21,0.091,0.455,0.161,0.685,0.158
					c0.151-0.002,0.306-0.031,0.449-0.079c0.146-0.049,0.286-0.128,0.394-0.241c0.056-0.059,0.09-0.126,0.131-0.194
					c0.016-0.027,0.016-0.027,0.023-0.039c-0.022,0.038-0.05,0.088-0.022,0.05C70.915,195.176,70.917,195.158,70.927,195.14
					C70.943,195.113,70.942,195.114,70.927,195.14z"/>
				<path style="fill:#3C484D;" d="M70.849,194.707c-0.01-0.014-0.02-0.029-0.03-0.043c-0.004-0.001-0.007-0.003-0.011-0.004
					c0.012,0.009,0.018,0.028,0.029,0.039C70.84,194.702,70.845,194.704,70.849,194.707z"/>
			</g>
		</g>
		<g>
			<path style="fill:#797E8F;" d="M264.668,199.681c-19.584-52.559-71.096-59.047-71.096-59.047h-16.361
				c0,0-51.511,6.488-71.096,59.047s-41.157,117.964,54.066,121.238h7.682h35.057h7.682
				C305.825,317.645,284.252,252.24,264.668,199.681z"/>
			<path style="fill:#8D92A6;" d="M264.668,199.681c-19.584-52.559-71.096-59.047-71.096-59.047h-16.361
				c0,0-51.511,6.488-71.096,59.047s-41.157,117.964,54.066,121.238h7.682h35.057h7.682
				C305.825,317.645,284.252,252.24,264.668,199.681z"/>
			<path style="fill:#8D92A6;" d="M264.668,199.681c-0.57-1.531-1.171-3.019-1.793-4.473c-4.474,9.084-9.494,17.903-14.866,26.478
				c-3.006,4.799-6.544,9.327-10.246,13.605c-3.978,4.596-8.292,8.914-12.965,12.804c-9.099,7.576-19.853,13.834-31.703,15.646
				c-9.081,1.388-18.46-0.076-26.669-4.203c-7.131-3.584-13.117-9.067-17.96-15.359c-5.265-6.839-9.234-14.602-12.387-22.612
				c-3.331-8.461-5.753-17.269-7.562-26.173c-1.757-8.65-2.937-17.421-3.612-26.22c-0.006-0.082-0.01-0.165-0.016-0.247
				c-7.346,7.905-14.006,17.961-18.773,30.754c-19.584,52.559-41.157,117.964,54.066,121.238h50.421
				C305.825,317.645,284.252,252.24,264.668,199.681z"/>
			<g>
				<g>
					<g>
						<path style="fill:#8D92A6;" d="M310.67,241.299c-3.65-4.736-8.535-7.986-13.815-10.129c-5.06-1.195-10.399-1.01-15.501-0.083
							c-8.488,1.543-16.545,5.163-23.743,9.865c-7.46,4.873-14.08,10.98-19.766,17.828c-4.563,5.497-8.536,11.48-11.878,17.795
							c-5.996,13.924-11.225,29.372-10.751,41.146c2.088,0.789,4.23,1.438,6.43,1.922c5.851-0.502,11.693-1.118,17.556-1.464
							c8.743-0.517,17.683-0.532,26.221,1.662c7.091,1.822,13.618,5.212,19.344,9.763c2.013,1.6,3.918,3.343,5.71,5.195
							c2.766-4.427,4.985-8.337,6.115-10.22c7.601-12.665,14.102-26.367,18.437-40.832
							C319.311,269.455,319.227,252.401,310.67,241.299z"/>
						<path style="fill:#A7BBC5;" d="M315.346,275.978c0.477-6.291,0.492-12.74-1.003-18.905
							c-1.512-6.237-4.658-11.741-9.466-16.016c-4.486-3.988-9.895-6.818-15.799-7.974c-6.046-1.184-12.169-0.618-18.077,0.963
							c3.357-1.293,6.814-2.314,10.352-2.958c5.102-0.927,10.441-1.112,15.501,0.083c5.28,2.142,10.165,5.392,13.815,10.128
							c8.556,11.102,8.641,28.156,4.357,42.449c-0.386,1.287-0.808,2.56-1.227,3.834
							C314.527,283.748,315.05,279.884,315.346,275.978z"/>
					</g>
					<g>
						<path style="fill:#828799;" d="M349.356,292.908c-0.028-0.477-0.058-0.955-0.096-1.431c-0.165-2.052-0.363-4.138-0.852-6.142
							c-1.822-7.47-7.34-13.641-13.163-18.376c-6.648-5.406-14.71-8.695-23.069-10.359c-4.18-0.832-8.432-1.278-12.69-1.422
							c-3.863-0.13-7.699,0.044-11.492,0.833c-3.168,0.659-6.261,1.722-9.125,3.199c-20.993,18.074-19.402,55.501-2.502,69.88
							c18.511,15.749,53.065,12.541,68.174-18.537C347.663,304.133,349.042,298.204,349.356,292.908z"/>
						<path style="fill:#494D59;" d="M299.637,254.135c-1.718-0.83-3.77-0.961-5.645-1.035c-1.596-0.063-3.159,0.089-4.747,0.132
							c-0.19,0.005-0.351,0.112-0.459,0.247c-0.709,0.07-1.417,0.175-2.123,0.327c-1.386,0.3-2.768,0.77-3.99,1.5
							c-1.004,0.6-2.088,1.385-2.583,2.484c-1.098,2.434,2.09,4.042,3.9,4.716c4.187,1.558,9.6,1.576,13.582-0.594
							c1.752-0.955,3.584-2.639,3.918-4.712C301.718,255.776,300.868,254.73,299.637,254.135z"/>
						<path style="fill:#494D59;" d="M321.852,257.403c-2.216-1.013-4.534-1.888-6.923-2.389c-1.113-0.234-2.384-0.42-3.633-0.4
							c-1.493-0.233-3.037-0.298-4.522-0.008c-1.245,0.243-2.716,0.856-3.099,2.194c-0.458,1.598,0.878,2.912,2.083,3.72
							c1.311,0.878,2.789,1.495,4.285,1.982c2.599,0.844,5.266,1.604,8.014,1.692c2.096,0.068,5.139-0.216,6.259-2.319
							C325.449,259.749,323.612,258.208,321.852,257.403z"/>
						<path style="fill:#494D59;" d="M341.316,271.503c-0.397-1-0.943-1.95-1.614-2.791c-0.834-1.045-1.875-1.883-2.931-2.691
							c-0.901-0.69-1.764-1.43-2.654-2.134c-0.817-0.766-1.751-1.414-2.739-1.917c-1.518-0.773-3.685-1.466-5.319-0.621
							c-2.853,1.476,0.844,5.283,2.076,6.563c1.869,1.941,3.8,3.899,5.897,5.592c1.188,0.959,2.505,1.933,3.994,2.353
							c1.318,0.372,2.964,0.059,3.56-1.327C342.005,273.561,341.686,272.434,341.316,271.503z"/>
						<path style="fill:#494D59;" d="M350.229,287.859c0.103-2.06-0.273-4.396-1.241-6.232c-0.951-1.801-2.294-3.88-4.461-4.289
							c-0.796-0.15-1.684,0.052-2.174,0.737c-0.069,0.096-0.123,0.195-0.166,0.296c-0.292,0.406-0.388,0.95-0.4,1.44
							c-0.048,1.859,0.858,3.729,1.587,5.392c0.688,1.568,1.252,3.301,2.46,4.563c0.83,0.867,2.223,1.507,3.324,0.733
							C350,289.909,350.182,288.817,350.229,287.859z"/>
					</g>
				</g>
				<g>
					<g>
						<path style="fill:#8D92A6;" d="M44.909,241.299c3.65-4.736,8.535-7.986,13.816-10.129c5.06-1.195,10.399-1.01,15.501-0.083
							c8.488,1.543,16.545,5.163,23.743,9.865c7.46,4.873,14.08,10.98,19.766,17.828c4.563,5.497,8.536,11.48,11.878,17.795
							c5.996,13.924,11.226,29.372,10.751,41.146c-2.088,0.789-4.23,1.438-6.43,1.922c-5.851-0.502-11.693-1.118-17.556-1.464
							c-8.743-0.517-17.683-0.532-26.221,1.662c-7.091,1.822-13.618,5.212-19.344,9.763c-2.013,1.6-3.918,3.343-5.71,5.195
							c-2.766-4.427-4.985-8.337-6.115-10.22c-7.601-12.665-14.102-26.367-18.437-40.832
							C36.268,269.455,36.353,252.401,44.909,241.299z"/>
						<path style="fill:#A7BBC5;" d="M40.233,275.978c-0.477-6.291-0.492-12.74,1.003-18.905c1.512-6.237,4.658-11.741,9.466-16.016
							c4.486-3.988,9.895-6.818,15.799-7.974c6.046-1.184,12.169-0.618,18.077,0.963c-3.357-1.293-6.814-2.314-10.352-2.958
							c-5.102-0.927-10.441-1.112-15.501,0.083c-5.28,2.142-10.165,5.392-13.815,10.128c-8.557,11.102-8.641,28.156-4.358,42.449
							c0.386,1.287,0.808,2.56,1.228,3.834C41.052,283.748,40.53,279.884,40.233,275.978z"/>
					</g>
					<g>
						<path style="fill:#828799;" d="M6.224,292.908c0.028-0.477,0.058-0.955,0.096-1.431c0.165-2.052,0.363-4.138,0.852-6.142
							c1.822-7.47,7.34-13.641,13.163-18.376c6.648-5.406,14.71-8.695,23.069-10.359c4.18-0.832,8.432-1.278,12.69-1.422
							c3.863-0.13,7.7,0.044,11.492,0.833c3.167,0.659,6.26,1.722,9.125,3.199c20.993,18.074,19.402,55.501,2.502,69.88
							C60.7,344.84,26.147,341.633,11.038,310.554C7.916,304.133,6.537,298.204,6.224,292.908z"/>
						<path style="fill:#494D59;" d="M54.091,257.2c0.334,2.073,2.165,3.758,3.918,4.712c3.982,2.17,9.395,2.152,13.582,0.594
							c1.811-0.674,4.998-2.282,3.9-4.716c-0.495-1.099-1.58-1.884-2.583-2.484c-1.222-0.73-2.604-1.201-3.99-1.5
							c-0.707-0.153-1.414-0.257-2.123-0.327c-0.108-0.135-0.27-0.242-0.46-0.247c-1.588-0.043-3.151-0.195-4.747-0.132
							c-1.876,0.074-3.927,0.205-5.646,1.035C54.711,254.73,53.862,255.776,54.091,257.2z"/>
						<path style="fill:#494D59;" d="M31.262,261.874c1.12,2.103,4.163,2.387,6.259,2.319c2.748-0.088,5.416-0.848,8.014-1.692
							c1.497-0.486,2.974-1.104,4.285-1.982c1.205-0.807,2.541-2.121,2.083-3.72c-0.383-1.338-1.854-1.951-3.099-2.194
							c-1.486-0.29-3.029-0.224-4.522,0.008c-1.249-0.02-2.52,0.167-3.633,0.4c-2.388,0.501-4.707,1.377-6.923,2.389
							C31.967,258.208,30.13,259.749,31.262,261.874z"/>
						<path style="fill:#494D59;" d="M13.991,274.53c0.596,1.386,2.242,1.699,3.56,1.327c1.489-0.42,2.807-1.395,3.994-2.353
							c2.097-1.693,4.028-3.65,5.897-5.592c1.232-1.28,4.929-5.087,2.076-6.563c-1.633-0.845-3.801-0.151-5.319,0.621
							c-0.988,0.503-1.922,1.15-2.739,1.917c-0.89,0.703-1.753,1.443-2.654,2.134c-1.056,0.809-2.097,1.647-2.931,2.691
							c-0.671,0.841-1.217,1.79-1.614,2.791C13.894,272.434,13.574,273.561,13.991,274.53z"/>
						<path style="fill:#494D59;" d="M6.422,290.501c1.1,0.773,2.493,0.134,3.324-0.733c1.208-1.262,1.773-2.996,2.46-4.563
							c0.729-1.663,1.634-3.532,1.587-5.392c-0.013-0.49-0.108-1.034-0.4-1.44c-0.043-0.101-0.097-0.2-0.166-0.296
							c-0.49-0.685-1.379-0.887-2.174-0.737c-2.166,0.408-3.51,2.487-4.461,4.289c-0.969,1.835-1.344,4.172-1.241,6.232
							C5.398,288.817,5.579,289.909,6.422,290.501z"/>
					</g>
				</g>
			</g>
			<g>
				<g>
					<g>
						<path style="fill:#828799;" d="M130.396,318.622c1.33,1.659,2.986,3,4.904,3.929c2.694,1.306,5.756,1.849,8.698,2.255
							c3.82,0.528,7.699,0.609,11.544,0.367c3.833-0.241,7.641-0.809,11.393-1.627c2.67-0.582,5.449-1.115,7.977-2.183
							c2.229-0.942,4.176-2.474,4.817-4.902c2.119-8.028-2.744-15.505-6.252-22.293c-3.896-7.541-5.414-16.178-7.337-24.364
							c-2.242-9.545-3.621-19.365-4.298-29.141c-1.176-16.968-0.111-34.222,4.315-50.932c2.133-8.053,5.34-15.96,6.748-24.111
							c0.334-1.932,0.583-3.921,0.682-5.924c-0.188-0.419-0.361-0.844-0.562-1.258c-0.803-4.409-2.786-8.77-5.724-12.579
							c-2.079-2.694-4.819-5.207-8.389-6.943c-3.968-1.929-8.819-2.685-13.555-2.668c-10.905,0.038-20.837,4.345-28.347,9.785
							c-7.725,5.596-12.945,12.599-16.269,20.085c-2.01,4.527-3.383,9.175-4.273,13.884c-1.83,7.854-2.451,15.948-2.312,24.015
							c0.38,22.083,6.532,43.764,14.449,64.235c3.907,10.103,8.334,19.987,12.904,29.805c2.419,5.197,4.831,10.399,7.001,15.706
							C129.163,315.358,129.76,316.997,130.396,318.622z"/>
						<path style="opacity:0.4;fill:#8D92A6;" d="M99.564,172.739c4.261-5.393,9.796-9.814,16.283-12.199
							c6.871-2.526,14.755-3.027,21.774-0.823c6.666,2.093,12.372,6.658,15.655,12.852c1.771,3.34,2.803,7.019,3.2,10.772
							c0.588,5.564,0.743,11.183,0.794,16.774c0.101,11.217-0.4,22.437,0.04,33.65c0.413,10.518,1.972,20.854,4.429,31.083
							c2.274,9.466,5.253,18.787,9.141,27.718c2.612,6.001,5.65,11.827,9.165,17.348c-0.804-5.573-4.033-10.84-6.568-15.746
							c-3.896-7.541-5.414-16.178-7.337-24.364c-2.242-9.545-3.621-19.365-4.298-29.141c-1.176-16.968-0.111-34.222,4.315-50.932
							c2.133-8.053,5.34-15.96,6.748-24.11c0.334-1.932,0.583-3.921,0.682-5.924c-0.188-0.419-0.361-0.844-0.562-1.258
							c-0.803-4.409-2.786-8.77-5.724-12.579c-2.079-2.694-4.819-5.207-8.388-6.943c-3.968-1.929-8.819-2.685-13.555-2.668
							c-10.905,0.038-20.837,4.345-28.347,9.785c-7.725,5.596-12.945,12.599-16.269,20.085c-1.39,3.131-2.47,6.322-3.301,9.549
							C98.117,174.67,98.816,173.686,99.564,172.739z"/>
						<path style="opacity:0.34;fill:#83949C;" d="M138.514,235.649c-2.077-0.24-4.207-0.068-6.257,0.307
							c-1.724,0.316-3.482,0.754-5.076,1.5c-2.39,1.117-4.425,2.868-6.205,4.792c-0.754,0.815-1.468,1.679-2.136,2.576
							c0.609-0.469,1.228-0.926,1.867-1.354c3.23-2.165,6.837-3.721,10.614-4.635c2.032-0.492,4.044-0.754,6.135-0.795
							c1.862-0.037,3.771,0.026,5.604-0.354C141.985,236.362,140.167,235.84,138.514,235.649z"/>
						<path style="opacity:0.34;fill:#83949C;" d="M129.284,246.647c-1.81,0.591-3.589,1.425-5.091,2.6
							c6.163-0.182,12.511-1.102,17.803-4.325c-1.099,0.018-2.197,0.049-3.294,0.116
							C135.523,245.234,132.321,245.655,129.284,246.647z"/>
						<path style="opacity:0.34;fill:#83949C;" d="M127.179,258.147c0.487,0.361,1.014,0.672,1.593,0.895
							c2.721,1.045,5.928,0.746,8.585-0.35c2.263-0.934,4.412-2.687,5.011-5.12c-2.853,1.274-5.515,2.96-8.467,4.017
							C131.668,258.388,129.378,258.645,127.179,258.147z"/>
					</g>
					<g>
						<path style="fill:#494D59;" d="M145.029,319.239c-1.585-2-3.694-3.873-6.33-4.189c-1.561-0.187-2.616,0.592-2.914,2.123
							c-0.331,1.702,0.132,3.568,0.715,5.163c0.105,0.288,0.232,0.577,0.356,0.866c2.287,0.846,4.753,1.274,7.143,1.604
							c1.51,0.209,3.031,0.329,4.553,0.406C147.611,323.089,146.458,321.043,145.029,319.239z"/>
						<path style="fill:#494D59;" d="M163.032,315.696c-1.379-2.14-3.36-4.143-6.024-4.402c-2.366-0.23-4.639,0.802-5.905,2.826
							c-1.247,1.993-1.575,4.465-1.573,6.773c0.001,1.468,0.154,2.941,0.437,4.387c1.859,0.047,3.721,0.01,5.575-0.106
							c3.743-0.235,7.46-0.787,11.125-1.574C165.615,320.897,164.611,318.147,163.032,315.696z"/>
						<path style="fill:#494D59;" d="M178.154,319.214c-0.106-0.891-0.269-1.767-0.459-2.589c-0.521-2.256-1.41-4.791-3.258-6.312
							c-1.587-1.307-4.123-1.348-5.473,0.331c-1.398,1.738-1.452,4.392-1.457,6.511c-0.005,2.073,0.256,4.156,0.18,6.228
							c2.437-0.524,4.933-1.052,7.224-2.02C176.137,320.845,177.268,320.14,178.154,319.214z"/>
					</g>
				</g>
				<g>
					<g>
						<path style="fill:#828799;" d="M238.726,318.622c-1.33,1.659-2.986,3-4.904,3.929c-2.694,1.306-5.756,1.849-8.698,2.255
							c-3.82,0.528-7.699,0.609-11.544,0.367c-3.833-0.241-7.641-0.809-11.393-1.627c-2.67-0.582-5.449-1.115-7.977-2.183
							c-2.229-0.942-4.176-2.474-4.817-4.902c-2.119-8.028,2.744-15.505,6.252-22.293c3.896-7.541,5.414-16.178,7.337-24.364
							c2.242-9.545,3.621-19.365,4.298-29.141c1.176-16.968,0.111-34.222-4.315-50.932c-2.133-8.053-5.34-15.96-6.748-24.111
							c-0.334-1.932-0.583-3.921-0.682-5.924c0.188-0.419,0.361-0.844,0.561-1.258c0.803-4.409,2.786-8.77,5.724-12.579
							c2.079-2.694,4.819-5.207,8.389-6.943c3.968-1.929,8.819-2.685,13.555-2.668c10.904,0.038,20.837,4.345,28.347,9.785
							c7.725,5.596,12.945,12.599,16.269,20.085c2.01,4.527,3.383,9.175,4.272,13.884c1.83,7.854,2.451,15.948,2.312,24.015
							c-0.38,22.083-6.532,43.764-14.449,64.235c-3.907,10.103-8.334,19.987-12.904,29.805c-2.419,5.197-4.831,10.399-7.001,15.706
							C239.96,315.358,239.362,316.997,238.726,318.622z"/>
						<path style="opacity:0.4;fill:#8D92A6;" d="M190.274,316.761c0.989-7.93,3.721-15.558,6.787-22.897
							c2.806-6.716,6.076-13.228,8.857-19.954c4.025-9.736,6.862-19.974,8.504-30.378c1.66-10.522,2.064-21.225,1.424-31.853
							c-0.281-4.667-0.976-9.312-0.967-13.993c0.007-3.759,0.385-7.539,1.292-11.192c1.713-6.898,5.483-13.201,11.469-17.19
							c6.6-4.398,15.064-5.802,22.816-4.464c8.801,1.519,16.678,6.595,21.883,13.609c-0.888-4.177-2.17-8.302-3.958-12.331
							c-3.324-7.486-8.544-14.49-16.269-20.085c-7.51-5.44-17.443-9.747-28.347-9.785c-4.736-0.016-9.587,0.739-13.555,2.668
							c-3.57,1.736-6.309,4.249-8.389,6.943c-2.939,3.808-4.921,8.17-5.724,12.579c-0.201,0.414-0.374,0.839-0.561,1.258
							c0.099,2.003,0.348,3.992,0.682,5.924c1.408,8.151,4.616,16.058,6.748,24.11c4.426,16.711,5.491,33.964,4.315,50.932
							c-0.677,9.776-2.056,19.596-4.298,29.141c-1.923,8.186-3.44,16.823-7.337,24.364c-3.508,6.788-8.371,14.265-6.252,22.293
							c0.163,0.619,0.414,1.179,0.73,1.687C190.167,317.684,190.217,317.222,190.274,316.761z"/>
						<path style="opacity:0.34;fill:#83949C;" d="M230.608,235.649c2.077-0.24,4.207-0.068,6.257,0.307
							c1.724,0.316,3.482,0.754,5.076,1.5c2.39,1.117,4.425,2.868,6.205,4.792c0.754,0.815,1.468,1.679,2.136,2.576
							c-0.609-0.469-1.228-0.926-1.867-1.354c-3.23-2.165-6.837-3.721-10.614-4.635c-2.032-0.492-4.044-0.754-6.134-0.795
							c-1.862-0.037-3.771,0.026-5.604-0.354C227.137,236.362,228.955,235.84,230.608,235.649z"/>
						<path style="opacity:0.34;fill:#83949C;" d="M239.838,246.647c1.809,0.591,3.589,1.425,5.091,2.6
							c-6.163-0.182-12.511-1.102-17.803-4.325c1.099,0.018,2.197,0.049,3.294,0.116
							C233.599,245.234,236.801,245.655,239.838,246.647z"/>
						<path style="opacity:0.34;fill:#83949C;" d="M241.944,258.147c-0.487,0.361-1.014,0.672-1.593,0.895
							c-2.721,1.045-5.928,0.746-8.585-0.35c-2.263-0.934-4.412-2.687-5.011-5.12c2.853,1.274,5.515,2.96,8.467,4.017
							C237.454,258.388,239.744,258.645,241.944,258.147z"/>
					</g>
					<g>
						<path style="fill:#494D59;" d="M224.094,319.239c1.585-2,3.694-3.873,6.33-4.189c1.561-0.187,2.616,0.592,2.914,2.123
							c0.331,1.702-0.132,3.568-0.715,5.163c-0.105,0.288-0.231,0.577-0.356,0.866c-2.287,0.846-4.753,1.274-7.143,1.604
							c-1.51,0.209-3.031,0.329-4.553,0.406C221.511,323.089,222.664,321.043,224.094,319.239z"/>
						<path style="fill:#494D59;" d="M206.09,315.696c1.378-2.14,3.36-4.143,6.024-4.402c2.366-0.23,4.639,0.802,5.904,2.826
							c1.247,1.993,1.575,4.465,1.573,6.773c-0.001,1.468-0.154,2.941-0.437,4.387c-1.859,0.047-3.721,0.01-5.575-0.106
							c-3.742-0.235-7.46-0.787-11.125-1.574C203.508,320.897,204.511,318.147,206.09,315.696z"/>
						<path style="fill:#494D59;" d="M190.969,319.214c0.106-0.891,0.269-1.767,0.459-2.589c0.521-2.256,1.41-4.791,3.258-6.312
							c1.587-1.307,4.123-1.348,5.473,0.331c1.398,1.738,1.452,4.392,1.457,6.511c0.005,2.073-0.256,4.156-0.18,6.228
							c-2.437-0.524-4.933-1.052-7.224-2.02C192.985,320.845,191.854,320.14,190.969,319.214z"/>
					</g>
				</g>
			</g>
		</g>
	</g>
	<g>
		<g>
			<path style="fill:#8D92A6;" d="M150.196,31.071c-1.033-0.566-2.159-0.972-3.241-1.451c-0.483-0.213-0.975-0.454-1.311-0.861
				c-2.342-2.838-1.285-9.493-2.322-13.042c-2.145-7.34-8.988-13.087-16.759-9.435c-6.777,3.185-11.121,12.227-10.292,19.523
				c0.365,3.213,2,6.393,4.776,8.05c2.88,1.719,6.502,1.605,9.593,2.905c4.582,1.926,5.224,7.838,9.461,9.49
				c1.442,0.563,3.08,0.271,4.534-0.264c4.731-1.741,12.796-9.852,6.478-14.345C150.82,31.433,150.512,31.244,150.196,31.071z"/>
			<path style="fill:#8D92A6;" d="M152.181,36.911c-3.215-0.469-6.415-1.525-8.863-3.738c-2.397-2.167-3.688-5.131-4.432-8.217
				c-0.622-2.581-1.165-5.22-2.209-7.673c-0.796-1.871-2.126-4.176-4.429-4.232c-1.369-0.033-2.663,0.655-3.763,1.406
				c-1.607,1.098-3.069,2.539-3.756,4.397c-1.222,3.305,0.37,6.744,2.921,8.92c0.724,0.618,1.535,1.068,2.331,1.579
				c0.861,0.554,1.729,1.097,2.587,1.656c1.601,1.043,3.178,2.149,4.552,3.485c1.428,1.388,2.588,3.017,3.437,4.818
				c0.52,1.104,0.834,2.288,1.106,3.474c0.283,1.235,0.518,2.488,0.78,3.733c0.746-0.076,1.491-0.275,2.193-0.533
				c3.133-1.153,7.725-5.099,8.636-8.939C152.908,37.007,152.544,36.964,152.181,36.911z"/>
			<path style="fill:#8D92A6;" d="M151.115,31.642c-0.295-0.21-0.602-0.398-0.919-0.571c-1.033-0.566-2.159-0.972-3.241-1.45
				c-0.483-0.213-0.975-0.454-1.311-0.861c-0.285-0.345-0.517-0.748-0.711-1.193c-4.383,3.162-8.694,6.71-11.482,11.251
				c2.316,2.553,3.471,6.193,6.652,7.433c1.442,0.562,3.08,0.271,4.534-0.264C149.368,44.247,157.432,36.136,151.115,31.642z"/>
		</g>
		<g>
			<path style="fill:#8D92A6;" d="M222.643,31.642c-6.318,4.494,1.747,12.604,6.478,14.345c1.453,0.535,3.092,0.826,4.534,0.264
				c4.238-1.653,4.88-7.564,9.462-9.49c3.092-1.3,6.713-1.186,9.593-2.905c2.776-1.657,4.411-4.838,4.776-8.05
				c0.829-7.296-3.515-16.338-10.292-19.523c-7.77-3.652-14.614,2.094-16.759,9.435c-1.037,3.549,0.02,10.205-2.322,13.042
				c-0.336,0.407-0.828,0.648-1.311,0.861c-1.082,0.478-2.208,0.884-3.242,1.451C223.245,31.244,222.938,31.433,222.643,31.642z"/>
			<path style="fill:#8D92A6;" d="M221.576,36.911c3.215-0.469,6.415-1.525,8.863-3.738c2.397-2.167,3.688-5.131,4.432-8.217
				c0.622-2.581,1.165-5.22,2.209-7.673c0.796-1.871,2.126-4.176,4.429-4.232c1.369-0.033,2.663,0.655,3.763,1.406
				c1.607,1.098,3.069,2.539,3.757,4.397c1.222,3.305-0.37,6.744-2.921,8.92c-0.724,0.618-1.536,1.068-2.331,1.579
				c-0.861,0.554-1.729,1.097-2.587,1.656c-1.601,1.043-3.178,2.149-4.552,3.485c-1.428,1.388-2.588,3.017-3.437,4.818
				c-0.52,1.104-0.834,2.288-1.106,3.474c-0.283,1.235-0.518,2.488-0.78,3.733c-0.745-0.076-1.491-0.275-2.193-0.533
				c-3.133-1.153-7.725-5.099-8.636-8.939C220.849,37.007,221.213,36.964,221.576,36.911z"/>
			<path style="fill:#8D92A6;" d="M222.643,31.642c0.295-0.21,0.602-0.398,0.918-0.571c1.033-0.566,2.159-0.972,3.242-1.45
				c0.483-0.213,0.975-0.454,1.311-0.861c0.285-0.345,0.517-0.748,0.711-1.193c4.383,3.162,8.694,6.71,11.482,11.251
				c-2.316,2.553-3.471,6.193-6.652,7.433c-1.442,0.562-3.08,0.271-4.534-0.264C224.39,44.247,216.325,36.136,222.643,31.642z"/>
		</g>
		<path style="fill:#8D92A6;" d="M228.876,32.474c-16.923-17.104-37.164-17.907-43.614-17.68c-6.45-0.227-26.691,0.577-43.614,17.68
			c-20.427,20.644-11.716,62.264-11.716,62.264l47.888,5.301l-0.104,1.659l7.547-0.835l7.547,0.835l-0.104-1.659l47.888-5.301
			C240.592,94.738,249.302,53.118,228.876,32.474z"/>
		<path style="fill:#8D92A6;" d="M241.219,59.075c-0.579,2.87-1.856,5.57-4.305,7.348c-1.792,1.301-4.077,1.997-6.276,2.127
			c-3.514,0.207-6.994-0.937-10.297-1.988c-3.504-1.115-7.049-1.969-10.65-2.709c-3.921-0.806-7.875-1.463-11.857-1.877
			c-7.776-0.81-15.697-0.598-23.482-0.015c-3.911,0.293-7.813,0.721-11.691,1.301c-3.46,0.518-6.796,1.387-10.151,2.369
			c-3.368,0.986-6.734,2.021-10.187,2.671c-2.595,0.489-5.452,0.943-8.053,0.25c-1.555-0.414-2.921-1.301-3.833-2.637
			c-0.924-1.355-1.301-3.01-1.441-4.622c-0.005-0.062-0.004-0.125-0.009-0.187c-2.473,17.285,0.947,33.631,0.947,33.631
			l47.888,5.301l-0.104,1.659l7.547-0.835l7.547,0.835l-0.104-1.659l47.888-5.301C240.592,94.738,244.283,77.088,241.219,59.075z"/>
		<g>
			<g>
				<g>
					
						<ellipse transform="matrix(0.1222 -0.9925 0.9925 0.1222 80.3011 206.0454)" style="fill:#FFFFFF;" cx="156.634" cy="57.626" rx="12.742" ry="12.742"/>
					<g>
						
							<ellipse transform="matrix(0.9925 -0.1222 0.1222 0.9925 -5.8674 19.5696)" style="fill:#62493E;" cx="156.634" cy="57.626" rx="9.516" ry="9.516"/>
						<g>
							<path style="fill:#312017;" d="M162.764,57.626c0,3.386-2.745,6.13-6.13,6.13c-3.386,0-6.13-2.745-6.13-6.13
								c0-3.386,2.745-6.131,6.13-6.131C160.019,51.496,162.764,54.241,162.764,57.626z"/>
							<path style="fill:#FFFFFF;" d="M154.982,53.735c0,1.237-1.003,2.239-2.24,2.239c-1.237,0-2.24-1.003-2.24-2.239
								s1.003-2.24,2.24-2.24C153.98,51.496,154.982,52.499,154.982,53.735z"/>
						</g>
					</g>
				</g>
				<g>
					
						<ellipse transform="matrix(0.1602 -0.9871 0.9871 0.1602 122.9983 259.8198)" style="fill:#FFFFFF;" cx="214.19" cy="57.626" rx="12.742" ry="12.742"/>
					<g>
						
							<ellipse transform="matrix(0.9732 -0.2298 0.2298 0.9732 -7.51 50.7526)" style="fill:#62493E;" cx="214.19" cy="57.626" rx="9.516" ry="9.516"/>
						<g>
							<path style="fill:#312017;" d="M220.32,57.626c0,3.386-2.745,6.13-6.13,6.13c-3.386,0-6.13-2.745-6.13-6.13
								c0-3.386,2.745-6.131,6.13-6.131C217.576,51.496,220.32,54.241,220.32,57.626z"/>
							<path style="fill:#FFFFFF;" d="M212.539,53.735c0,1.237-1.003,2.239-2.24,2.239c-1.237,0-2.24-1.003-2.24-2.239
								s1.003-2.24,2.24-2.24C211.536,51.496,212.539,52.499,212.539,53.735z"/>
						</g>
					</g>
				</g>
			</g>
		</g>
		<g>
			<g>
				<path style="fill:#8D92A6;" d="M147.975,38.793c-0.225,0-0.451-0.063-0.652-0.196c-0.544-0.361-0.692-1.093-0.331-1.637
					c0.048-0.073,4.941-7.252,13.519-2.804c0.579,0.3,0.805,1.013,0.505,1.592c-0.301,0.579-1.013,0.806-1.592,0.505
					c-6.715-3.484-10.313,1.787-10.463,2.012C148.732,38.607,148.357,38.793,147.975,38.793z"/>
			</g>
			<g>
				<path style="fill:#8D92A6;" d="M222.849,38.793c-0.381,0-0.755-0.184-0.983-0.525c-0.154-0.228-3.8-5.472-10.466-2.016
					c-0.58,0.3-1.292,0.074-1.592-0.505c-0.3-0.579-0.074-1.292,0.505-1.592c8.578-4.451,13.47,2.731,13.519,2.804
					c0.361,0.544,0.212,1.276-0.331,1.637C223.299,38.729,223.073,38.793,222.849,38.793z"/>
			</g>
		</g>
		<path style="fill:#8D92A6;" d="M246.158,87.093c-20.372-22.338-52.768-22.968-60.767-22.761
			c-7.999-0.208-40.394,0.423-60.767,22.761c-23.38,25.636-24.076,52.658-9.448,62.897c11.434,8.003,47.62,9.33,70.214,8.166
			c22.595,1.164,58.78-0.163,70.214-8.166C270.235,139.751,269.538,112.728,246.158,87.093z"/>
		<g>
			<path style="fill:#8D92A6;" d="M185.392,67.313c7.999-0.207,40.394,0.423,60.767,22.761
				c12.787,14.021,18.775,28.45,19.196,40.328c0.565-12.393-5.32-28.095-19.196-43.309c-20.372-22.338-52.768-22.968-60.767-22.761
				c-7.999-0.208-40.394,0.423-60.767,22.761c-13.875,15.214-19.761,30.916-19.195,43.309c0.42-11.878,6.409-26.307,19.195-40.328
				C144.997,67.736,177.393,67.106,185.392,67.313z"/>
		</g>
		<g>
			<g>
				<path style="fill:#231F20;" d="M157.423,93.781c-0.603,0.827-0.677,2.038-0.444,3.004c0.539,2.234,2.378,4.061,4.121,5.44
					c1.323,1.047,2.856,2.024,4.483,2.614c0.018-0.282,0.024-0.566,0.015-0.852c-0.076-0.277-0.14-0.558-0.224-0.831
					c-0.484-1.581-1.085-3.127-1.782-4.626c-0.898-1.931-1.899-4.197-3.982-5.097C158.853,93.105,157.956,93.048,157.423,93.781z"/>
				<path style="fill:#8D92A6;" d="M161.848,88.26c-2.298-1.21-4.922-1.563-7.36-0.082c-2.731,1.659-3.692,5.221-3.103,8.22
					c0.338,1.725,1.173,3.287,2.482,4.464c0.075,0.067,0.259-0.081,0.184-0.158c-1.979-2.044-2.493-5.414-1.768-8.093
					c0.345-1.274,1.007-2.514,2.053-3.349c1.434-1.144,3.386-1.354,5.119-0.874c1.983,0.55,3.712,1.788,5.353,3.022
					C163.908,90.28,162.924,89.221,161.848,88.26z"/>
			</g>
			<g>
				<path style="fill:#231F20;" d="M206.382,93.781c0.602,0.827,0.677,2.038,0.444,3.004c-0.539,2.234-2.378,4.061-4.121,5.44
					c-1.323,1.047-2.857,2.024-4.483,2.614c-0.018-0.282-0.024-0.566-0.015-0.852c0.076-0.277,0.14-0.558,0.224-0.831
					c0.484-1.581,1.085-3.127,1.782-4.626c0.898-1.931,1.899-4.197,3.982-5.097C204.951,93.105,205.848,93.048,206.382,93.781z"/>
				<path style="fill:#8D92A6;" d="M201.957,88.26c2.298-1.21,4.922-1.563,7.36-0.082c2.731,1.659,3.692,5.221,3.103,8.22
					c-0.338,1.725-1.173,3.287-2.482,4.464c-0.075,0.067-0.259-0.081-0.184-0.158c1.979-2.044,2.493-5.414,1.768-8.093
					c-0.345-1.274-1.007-2.514-2.053-3.349c-1.434-1.144-3.386-1.354-5.119-0.874c-1.983,0.55-3.712,1.788-5.353,3.022
					C199.896,90.28,200.88,89.221,201.957,88.26z"/>
			</g>
		</g>
		<path style="fill:#494D59;" d="M242.929,133.465c-0.161-0.631-0.803-1.008-1.432-0.851c-0.631,0.159-1.014,0.8-0.857,1.432
			c0.008,0.031,0.76,3.168-0.845,5.672c-1.013,1.58-2.783,2.62-5.261,3.089c-3.232,0.61-6.932-0.831-12.057-2.829
			c-8.368-3.261-19.742-7.687-38.628-7.431c-18.919-0.279-30.309,4.166-38.686,7.431c-5.124,1.998-8.826,3.438-12.056,2.829
			c-2.478-0.47-4.249-1.509-5.261-3.089c-1.592-2.484-0.864-5.591-0.844-5.67c0.16-0.631-0.222-1.273-0.853-1.434
			c-0.628-0.163-1.275,0.22-1.436,0.852c-0.043,0.167-1.02,4.126,1.13,7.504c1.375,2.162,3.672,3.561,6.825,4.158
			c0.673,0.128,1.346,0.187,2.031,0.187c3.279,0,6.781-1.364,11.324-3.135c7.926-3.089,18.633-7.257,36.019-7.281
			c0.094,0.024,0.19,0.041,0.291,0.041c0.011,0,0.021,0,0.033,0c0.494-0.013,0.98-0.021,1.464-0.028
			c0.479,0.007,0.959,0.015,1.448,0.028c0.113,0.003,0.219-0.015,0.322-0.04c17.39,0.028,28.094,4.191,36.022,7.281
			c4.543,1.771,8.044,3.135,11.323,3.135c0.683,0,1.358-0.059,2.03-0.187c3.153-0.598,5.45-1.997,6.825-4.158
			C243.949,137.591,242.972,133.632,242.929,133.465z"/>
		<g>
			<path style="fill:#8D92A6;" d="M133.493,116.611c0,0.474-0.384,0.858-0.858,0.858c-0.474,0-0.858-0.384-0.858-0.858
				c0-0.474,0.384-0.858,0.858-0.858C133.109,115.753,133.493,116.137,133.493,116.611z"/>
			<path style="fill:#8D92A6;" d="M149.692,118.327c0,0.474-0.384,0.858-0.858,0.858c-0.474,0-0.858-0.384-0.858-0.858
				c0-0.474,0.384-0.858,0.858-0.858C149.308,117.469,149.692,117.853,149.692,118.327z"/>
			<path style="fill:#8D92A6;" d="M145.068,110.001c0,0.474-0.384,0.858-0.858,0.858s-0.858-0.384-0.858-0.858
				c0-0.474,0.384-0.858,0.858-0.858S145.068,109.527,145.068,110.001z"/>
			<path style="fill:#8D92A6;" d="M142.505,117.898c0,0.711-0.576,1.287-1.287,1.287c-0.711,0-1.287-0.576-1.287-1.287
				c0-0.711,0.576-1.287,1.287-1.287C141.929,116.611,142.505,117.187,142.505,117.898z"/>
		</g>
		<g>
			<path style="fill:#8D92A6;" d="M231.271,116.611c0,0.474,0.384,0.858,0.858,0.858c0.474,0,0.858-0.384,0.858-0.858
				c0-0.474-0.384-0.858-0.858-0.858C231.655,115.753,231.271,116.137,231.271,116.611z"/>
			<path style="fill:#8D92A6;" d="M215.072,118.327c0,0.474,0.384,0.858,0.858,0.858c0.474,0,0.858-0.384,0.858-0.858
				c0-0.474-0.384-0.858-0.858-0.858C215.456,117.469,215.072,117.853,215.072,118.327z"/>
			<path style="fill:#8D92A6;" d="M219.696,110.001c0,0.474,0.384,0.858,0.858,0.858c0.474,0,0.858-0.384,0.858-0.858
				c0-0.474-0.384-0.858-0.858-0.858C220.08,109.143,219.696,109.527,219.696,110.001z"/>
			<path style="fill:#8D92A6;" d="M222.259,117.898c0,0.711,0.576,1.287,1.287,1.287s1.287-0.576,1.287-1.287
				c0-0.711-0.576-1.287-1.287-1.287S222.259,117.187,222.259,117.898z"/>
		</g>
	</g>
</g>
</svg>
