<?xml version="1.0" encoding="utf-8"?>
<!-- Generator: Adobe Illustrator 27.5.0, SVG Export Plug-In . SVG Version: 6.00 Build 0)  -->
<svg version="1.1" id="Layer_1" xmlns="http://www.w3.org/2000/svg" xmlns:xlink="http://www.w3.org/1999/xlink" x="0px" y="0px"
	 viewBox="0 0 201.178 191.294" style="enable-background:new 0 0 201.178 191.294;" xml:space="preserve">
<g>
	<g>
		<g>
			<path style="fill:#606259;" d="M18.8,12.757c0.148-1.71,0.421-3.417,0.892-5.07c0.35-1.227,0.8-2.442,1.713-3.368
				c0.979-0.991,2.275-1.385,3.613-1.45c1.251,0.443,2.494,0.907,3.719,1.415c6.625,2.747,12.869,6.362,18.709,10.515
				c4.843,3.444,9.48,7.247,13.947,11.166c4.719,4.139,9.284,8.558,13.088,13.568c1.199,1.578,2.348,3.272,3.362,5.043
				c-2.436-0.498-4.932-0.68-7.449-0.509c-0.474,0.032,3.081,2.791,4.665,3.84c-3.977-0.134-12.233,2.399-11.836,2.603
				c1.065,0.548,2.232,0.74,3.393,0.962c-2.86,0.655-8.116,3.899-7.752,3.932c1.205,0.109,2.441,0.017,3.633,0.206
				c-3.072,1.708-35.969,20.353-37.462,18.113c-0.17-0.255-0.319-0.521-0.473-0.784c-1.424-4.817-2.451-9.754-3.181-14.721
				c-1.168-7.95-1.614-15.986-1.821-24.012C19.376,27.065,18.182,19.905,18.8,12.757z"/>
			<path style="fill:#908983;" d="M22.955,18.801c0.117-0.84,0.312-1.668,0.54-2.485c0.309-1.106,0.7-2.21,1.523-3.043
				c0.852-0.863,1.98-1.205,3.144-1.262c1.089,0.386,2.171,0.79,3.237,1.232c5.766,2.39,11.2,5.537,16.282,9.151
				c4.215,2.997,8.25,6.307,12.137,9.718c4.106,3.602,8.079,7.448,11.39,11.808c1.043,1.374,2.044,2.847,2.926,4.389
				c-2.12-0.433-4.292-0.592-6.482-0.443c-0.413,0.028,2.681,2.429,4.059,3.342c-3.461-0.116-10.646,2.087-10.3,2.265
				c0.927,0.476,1.942,0.644,2.953,0.837c-2.489,0.57-7.063,3.393-6.746,3.422c1.049,0.095,2.124,0.015,3.162,0.179
				c-2.673,1.486-31.302,17.712-32.601,15.763c-0.148-0.222-0.277-0.453-0.412-0.682c-1.239-4.192-2.133-8.489-2.768-12.811
				c-1.017-6.918-1.405-13.912-1.585-20.896C23.237,32.464,22.003,25.625,22.955,18.801z"/>
			<path style="fill:#433F37;" d="M26.871,20.263c2.57,2.477,4.663,5.428,6.959,8.18c-1.188-0.694-2.376-1.386-3.54-2.118
				c-0.399-0.251-0.94,0.291-0.647,0.679c2.725,3.623,5.543,7.189,7.964,11.022c-1.446-1.121-2.927-2.198-4.532-3.077
				c-0.474-0.259-1.002,0.421-0.569,0.776c2.597,2.123,4.692,4.78,6.446,7.625c3.498,5.675,5.765,12.081,7.413,18.513
				c0.196,0.764,0.383,1.531,0.561,2.301c-5.213,2.781-10.747,5.627-14.953,7.518c-3.076-7.067-4.67-14.781-5.524-22.404
				c-0.452-4.029-0.642-8.067-0.832-12.114c-0.142-3.011-0.263-6.027-0.128-9.041C25.602,25.568,25.782,22.664,26.871,20.263z"/>
			<path style="opacity:0.5;fill:#606259;" d="M77.843,44.577c-1.014-1.771-2.164-3.464-3.363-5.043
				c-2.827-3.724-6.076-7.121-9.495-10.319c-5.594,1.156-11.038,3.018-16.077,5.724c-5.831,3.132-10.838,7.349-15.38,12.133
				c-1.164,1.226-2.3,2.477-3.424,3.74c-0.97,1.09-2.003,2.161-2.898,3.315c-1.17,1.509-2.242,3.097-3.367,4.64
				c-0.639,0.875-1.282,1.75-1.944,2.611c0.678,3.899,1.546,7.769,2.667,11.563c0.155,0.263,0.304,0.529,0.473,0.783
				c1.493,2.24,34.39-16.405,37.462-18.113c-1.192-0.189-2.428-0.097-3.633-0.206c-0.364-0.033,4.891-3.277,7.752-3.932
				c-1.161-0.221-2.328-0.414-3.393-0.961c-0.397-0.204,7.859-2.736,11.836-2.603c-1.583-1.05-5.139-3.808-4.664-3.841
				C72.911,43.897,75.407,44.079,77.843,44.577z"/>
		</g>
		<g>
			<path style="fill:#606259;" d="M182.377,12.757c-0.148-1.71-0.421-3.417-0.892-5.07c-0.35-1.227-0.8-2.442-1.713-3.368
				c-0.979-0.991-2.275-1.385-3.613-1.45c-1.251,0.443-2.494,0.907-3.719,1.415c-6.625,2.747-12.869,6.362-18.709,10.515
				c-4.843,3.444-9.48,7.247-13.947,11.166c-4.719,4.139-9.284,8.558-13.088,13.568c-1.199,1.578-2.348,3.272-3.362,5.043
				c2.436-0.498,4.932-0.68,7.449-0.509c0.474,0.032-3.081,2.791-4.664,3.84c3.977-0.134,12.233,2.399,11.836,2.603
				c-1.065,0.548-2.232,0.74-3.393,0.962c2.86,0.655,8.116,3.899,7.752,3.932c-1.205,0.109-2.441,0.017-3.633,0.206
				c3.072,1.708,35.969,20.353,37.462,18.113c0.17-0.255,0.318-0.521,0.473-0.784c1.424-4.817,2.451-9.754,3.181-14.721
				c1.168-7.95,1.614-15.986,1.821-24.012C181.801,27.065,182.996,19.905,182.377,12.757z"/>
			<path style="fill:#908983;" d="M178.222,18.801c-0.117-0.84-0.312-1.668-0.54-2.485c-0.309-1.106-0.7-2.21-1.523-3.043
				c-0.852-0.863-1.98-1.205-3.144-1.262c-1.089,0.386-2.171,0.79-3.237,1.232c-5.766,2.39-11.2,5.537-16.282,9.151
				c-4.215,2.997-8.25,6.307-12.137,9.718c-4.106,3.602-8.079,7.448-11.39,11.808c-1.043,1.374-2.044,2.847-2.926,4.389
				c2.12-0.433,4.292-0.592,6.482-0.443c0.413,0.028-2.682,2.429-4.059,3.342c3.461-0.116,10.646,2.087,10.3,2.265
				c-0.927,0.476-1.942,0.644-2.953,0.837c2.489,0.57,7.063,3.393,6.746,3.422c-1.049,0.095-2.124,0.015-3.162,0.179
				c2.673,1.486,31.302,17.712,32.601,15.763c0.148-0.222,0.277-0.453,0.412-0.682c1.239-4.192,2.133-8.489,2.768-12.811
				c1.017-6.918,1.405-13.912,1.585-20.896C177.941,32.464,179.175,25.625,178.222,18.801z"/>
			<path style="fill:#433F37;" d="M174.307,20.263c-2.57,2.477-4.663,5.428-6.959,8.18c1.188-0.694,2.376-1.386,3.54-2.118
				c0.399-0.251,0.94,0.291,0.647,0.679c-2.725,3.623-5.543,7.189-7.964,11.022c1.446-1.121,2.927-2.198,4.533-3.077
				c0.474-0.259,1.002,0.421,0.569,0.776c-2.597,2.123-4.692,4.78-6.446,7.625c-3.498,5.675-5.765,12.081-7.413,18.513
				c-0.196,0.764-0.383,1.531-0.561,2.301c5.213,2.781,10.747,5.627,14.953,7.518c3.076-7.067,4.67-14.781,5.525-22.404
				c0.452-4.029,0.641-8.067,0.832-12.114c0.142-3.011,0.263-6.027,0.128-9.041C175.576,25.568,175.395,22.664,174.307,20.263z"/>
			<path style="opacity:0.5;fill:#606259;" d="M176.485,58.006c-2.784-3.839-5.663-7.626-8.943-11.06
				c-3.078-3.223-6.52-6.001-10.29-8.374c-3.804-2.395-7.842-4.475-12.054-6.055c-3.178-1.192-6.574-2.177-9.997-2.345
				c-3.052,2.921-5.954,6.004-8.504,9.362c-1.199,1.579-2.348,3.272-3.362,5.043c2.436-0.498,4.932-0.68,7.449-0.509
				c0.474,0.032-3.081,2.791-4.664,3.841c3.977-0.134,12.233,2.398,11.836,2.603c-1.065,0.548-2.232,0.74-3.393,0.961
				c2.86,0.655,8.116,3.899,7.752,3.932c-1.205,0.109-2.441,0.017-3.633,0.206c3.072,1.708,35.969,20.353,37.462,18.113
				c0.169-0.255,0.318-0.521,0.473-0.783c1.083-3.664,1.916-7.401,2.582-11.165C178.295,60.517,177.393,59.259,176.485,58.006z"/>
		</g>
	</g>
	<path style="fill:#828589;" d="M197.856,85.215c-0.803-0.506-1.597-1.026-2.38-1.564c-6.197-4.259-11.592-9.522-16.607-15.098
		c-4.992-5.551-9.651-11.392-14.655-16.933c-5.23-5.791-11.002-11.222-18.033-14.764c-3.185-1.604-6.618-2.687-10.065-3.57
		c-1.474-0.377-2.962-0.698-4.456-0.985c-6.416-2.036-13.124-3.211-19.818-3.611c-2.318-0.138-4.646-0.184-6.971-0.133
		c-1.428-0.032-2.856-0.007-4.283,0.038c-1.427-0.045-2.855-0.07-4.284-0.038c-2.325-0.052-4.653-0.005-6.971,0.133
		c-6.694,0.4-13.402,1.575-19.818,3.611c-1.494,0.287-2.982,0.608-4.456,0.985c-3.447,0.883-6.881,1.966-10.065,3.57
		c-7.03,3.542-12.803,8.973-18.033,14.764c-5.004,5.541-9.663,11.382-14.655,16.933C17.293,74.13,11.899,79.393,5.701,83.652
		c-0.782,0.538-1.576,1.058-2.379,1.564c-0.266,0.167-0.502,0.746-0.048,0.853c2.169,0.509,4.282-0.307,6.344-1.146
		c-2.997,2.415-5.61,5.615-6.289,9.339c-0.086,0.472,0.59,0.424,0.822,0.247c1.655-1.263,3.11-2.757,4.629-4.176
		c-2.725,3.95-4.542,8.47-4.831,13.335c-0.349,5.889,1.52,11.687,4.602,16.658c3.572,5.761,8.695,10.426,13.991,14.575
		c2.738,2.145,5.569,4.167,8.406,6.179c8.298,5.883,15.248,13.231,24.339,18.023c12.023,6.338,25.003,8.286,38.445,8.35
		c0.857,0.004,1.715-0.004,2.573-0.018c0.858,0.013,1.716,0.022,2.573,0.018c0.569-0.003,1.14-0.019,1.71-0.031
		c0.57,0.012,1.141,0.029,1.71,0.031c0.857,0.004,1.715-0.004,2.573-0.018c0.858,0.013,1.716,0.022,2.573,0.018
		c13.442-0.063,26.422-2.012,38.445-8.35c9.091-4.792,16.04-12.14,24.339-18.023c2.837-2.011,5.668-4.034,8.406-6.179
		c5.296-4.149,10.419-8.815,13.991-14.575c3.082-4.971,4.951-10.769,4.602-16.658c-0.288-4.865-2.105-9.385-4.831-13.335
		c1.519,1.419,2.974,2.913,4.628,4.176c0.233,0.177,0.909,0.225,0.823-0.247c-0.679-3.724-3.292-6.924-6.289-9.339
		c2.061,0.839,4.175,1.655,6.344,1.146C198.358,85.962,198.122,85.383,197.856,85.215z"/>
	<path style="fill:#838479;" d="M156.796,86.544c0.322,0.703,0.626,1.415,0.888,2.145c0.444,1.237,0.766,2.507,1.002,3.793
		c-0.2-2.154-0.736-4.318-1.822-6.171C156.842,86.388,156.819,86.466,156.796,86.544z"/>
	<path style="fill:#EEECDD;" d="M197.856,85.215c-0.803-0.506-1.597-1.026-2.38-1.564c-6.198-4.259-11.592-9.522-16.607-15.098
		c-2.589-2.879-5.09-5.836-7.594-8.789c0.374,0.765,0.774,1.518,1.22,2.249c2.287,3.749,5.229,7.045,7.592,10.744
		c2.389,3.74,4.019,7.898,3.804,12.399c-0.021,0.447-0.502,0.603-0.828,0.343c-4.45-3.538-9.731-5.996-15.309-7.096
		c1.203,3.311,1.769,6.878,0.301,10.217c-0.145,0.328-0.686,0.306-0.838,0c-1.156-2.335-1.997-4.883-3.585-6.961
		c0.003,2.328-0.285,4.65-0.96,6.885c-0.806,2.669-2.093,5.159-3.629,7.478c-0.271,0.41-0.872,0.239-0.904-0.245
		c-0.154-2.333-0.601-4.628-1.391-6.831c-0.115-0.32-0.249-0.632-0.377-0.947c-1.225,4.133-2.674,8.308-5.483,11.604
		c-1.462,1.715-3.287,3.096-5.305,4.093c-1.2,0.592-2.459,1.064-3.743,1.436c-1.572,0.455-3.185,0.866-4.804,1.104
		c-3.48,0.511-7.019,0.242-10.415-0.649c-1.78-0.467-3.512-1.101-5.194-1.846c-1.443-0.639-2.857-1.335-4.141-2.259
		c-2.349-1.691-4.268-3.866-6.399-5.807c-2.276-2.072-4.835-3.663-7.916-4.174c-3.17-0.526-5.922,0.532-8.417,2.182
		c0.369-0.004,0.703,0.479,0.368,0.827c-4.786,4.957-10.602,8.95-16.88,11.775c-10.639,4.786-22.992,5.987-33.979,1.582
		c-4.925-1.975-10.434-5.389-11.615-10.972c-0.98-4.633,1.169-9.201,3.612-13.123c-5.53,3.536-9.973,8.572-13.799,13.858
		c-0.287,0.397-0.861,0.249-0.904-0.245c-0.28-3.201-0.05-6.413,0.862-9.502c0.676-2.289,1.678-4.461,2.803-6.563
		c-3.851,3.388-6.824,7.687-9.842,11.805c-0.25,0.341-0.956,0.286-0.904-0.245c0.163-1.65,0.471-3.282,0.893-4.885
		c0.808-3.064,2.001-6.051,3.557-8.812c0.486-0.863,1.018-1.711,1.591-2.53c-2.368,1.823-4.809,3.54-7.565,4.737
		c-0.451,0.196-0.875-0.204-0.663-0.664c0.604-1.309,1.283-2.574,2.004-3.813c-2.646,2.424-5.425,4.698-8.392,6.737
		c-0.783,0.538-1.576,1.058-2.38,1.564c-0.265,0.167-0.502,0.746-0.048,0.853c2.169,0.509,4.282-0.307,6.344-1.146
		c-2.997,2.415-5.61,5.615-6.289,9.339c-0.086,0.472,0.59,0.424,0.822,0.247c1.655-1.263,3.11-2.757,4.629-4.176
		c-2.725,3.95-4.542,8.47-4.831,13.335c-0.349,5.889,1.52,11.687,4.602,16.658c3.572,5.761,8.695,10.426,13.991,14.575
		c2.738,2.145,5.569,4.167,8.407,6.179c8.298,5.883,15.248,13.231,24.339,18.023c12.023,6.338,25.003,8.286,38.445,8.35
		c0.857,0.004,1.715-0.004,2.573-0.018c0.858,0.013,1.716,0.022,2.573,0.018c0.57-0.003,1.14-0.019,1.71-0.031
		c0.57,0.012,1.141,0.029,1.71,0.031c0.857,0.004,1.715-0.004,2.573-0.018c0.858,0.013,1.716,0.022,2.573,0.018
		c13.442-0.063,26.422-2.012,38.445-8.35c9.091-4.792,16.041-12.14,24.339-18.023c2.837-2.011,5.668-4.034,8.406-6.179
		c5.296-4.149,10.419-8.815,13.991-14.575c3.082-4.971,4.951-10.769,4.602-16.658c-0.288-4.865-2.105-9.385-4.831-13.335
		c1.519,1.419,2.974,2.913,4.628,4.176c0.233,0.177,0.909,0.225,0.823-0.247c-0.679-3.724-3.292-6.924-6.289-9.339
		c2.061,0.839,4.175,1.655,6.344,1.146C198.358,85.962,198.122,85.383,197.856,85.215z"/>
	<path style="opacity:0.37;fill:#828589;" d="M193.458,91.983c-1.021-1.106-2.143-2.12-3.332-3.05
		c0.094,0.169,0.196,0.333,0.286,0.504c1.814,3.439,2.888,7.261,2.82,11.165c-0.062,3.58-1.057,7.07-2.611,10.28
		c-3.441,7.108-9.304,12.874-15.251,17.923c-2.989,2.538-6.005,5.067-9.076,7.504c-3.215,2.551-6.602,5.012-10.39,6.644
		c-2.961,1.276-6.206,2.08-9.391,1.202c-2.717-0.749-5.033-2.513-6.961-4.517c-0.763-0.793-1.46-1.634-2.132-2.493
		c-2.579-2.749-5.617-4.98-8.473-7.439c-3.597-3.097-6.702-6.64-9.285-10.627c-1.102-1.702-2.215-3.521-2.903-5.439
		c-0.451-1.257-0.677-2.596-0.961-3.897c-0.313-1.435-0.632-2.89-1.185-4.255c-0.368-0.911-0.898-1.935-1.795-2.408
		c-1.038,3.611-0.827,7.443-1.63,11.104c-0.657,2.996-2.103,6.113-4.948,7.583c-2.457,1.269-5.389,1.17-7.977,0.375
		c-2.926-0.9-5.617-2.638-7.325-5.212c-1.606-2.42-2.32-5.285-3.645-7.851c-0.593,0.675-1.133,1.39-1.608,2.158
		c-1.221,1.974-2.164,4.105-3.373,6.087c-1.29,2.113-2.77,4.094-4.374,5.977c-1.586,1.863-3.314,3.598-4.903,5.456
		c-1.51,1.765-2.891,3.634-4.276,5.498c-2.67,3.595-5.36,7.233-8.867,10.065c-2.918,2.356-6.492,3.255-10.192,2.752
		c-3.817-0.518-7.4-2.241-10.674-4.201c-3.233-1.936-6.225-4.217-9.252-6.453c-6.677-4.931-13.272-10.054-18.479-16.589
		c-3.254-4.084-5.808-8.63-7.342-13.522c0.25,4.969,1.978,9.794,4.598,14.02c3.572,5.761,8.695,10.426,13.991,14.575
		c2.738,2.145,5.569,4.167,8.407,6.179c8.298,5.883,15.248,13.231,24.339,18.023c12.023,6.338,25.003,8.286,38.445,8.35
		c0.857,0.004,1.715-0.004,2.573-0.018c0.858,0.013,1.716,0.022,2.573,0.018c0.57-0.003,1.14-0.019,1.71-0.031
		c0.57,0.012,1.141,0.029,1.71,0.031c0.857,0.004,1.715-0.004,2.573-0.018c0.858,0.013,1.716,0.022,2.573,0.018
		c13.442-0.063,26.422-2.012,38.445-8.35c9.091-4.792,16.041-12.14,24.339-18.023c2.837-2.011,5.668-4.034,8.406-6.179
		c5.296-4.149,10.419-8.815,13.991-14.575c3.082-4.971,4.951-10.769,4.602-16.658C196.98,99.467,195.587,95.525,193.458,91.983z"/>
	<g>
		<path style="fill:#908983;" d="M134.663,141.792c-5.947-8.966-15.496-15.71-17.849-26.752
			c-4.227-19.833-9.557-27.762-13.717-30.799c-0.902-0.174-1.822-0.272-2.755-0.263c-1.196,0.011-2.364,0.196-3.488,0.521
			c-4.109,3.215-9.267,11.238-13.381,30.541c-2.353,11.042-11.903,17.786-17.849,26.752c-7.191,10.842-6.456,25.232,1.994,35.273
			c6.424,7.633,17,11.782,26.866,11.326c1.952-0.09,9.368-0.09,11.32,0c9.866,0.456,20.443-3.694,26.866-11.326
			C141.118,167.024,141.853,152.634,134.663,141.792z"/>
		<path style="fill:#908983;" d="M134.663,141.792c-5.947-8.966-15.496-15.71-17.849-26.752
			c-4.227-19.833-9.557-27.762-13.717-30.799c-0.902-0.174-1.822-0.272-2.755-0.263c-1.196,0.011-2.364,0.196-3.488,0.521
			c-4.109,3.215-9.267,11.238-13.381,30.541c-2.353,11.042-11.903,17.786-17.849,26.752c-7.191,10.842-6.456,25.232,1.994,35.273
			c6.424,7.633,17,11.782,26.866,11.326c1.952-0.09,9.368-0.09,11.32,0c9.866,0.456,20.443-3.694,26.866-11.326
			C141.118,167.024,141.853,152.634,134.663,141.792z"/>
		<path style="fill:#D9D8CB;" d="M134.662,141.792c-2.19-3.303-4.87-6.304-7.498-9.33c2.027,4.637,3.251,9.77,1.675,14.617
			c-0.118,0.363-0.699,0.519-0.886,0.116c-0.877-1.887-1.876-3.711-2.887-5.528c0.164,3.627-0.559,7.241-2.54,10.439
			c-2.888,4.66-7.771,7.685-12.873,9.407c-5.547,1.872-11.605,2.366-17.4,1.61c-5.387-0.702-10.869-2.513-15.025-6.127
			c-0.274-0.239-0.537-0.486-0.793-0.739c-1.193-0.771-2.293-1.669-3.217-2.76c-3.106-3.667-3.222-8.38-2.038-12.78
			c-2.026,2.651-3.401,5.794-4.456,8.937c-0.171,0.509-0.954,0.433-0.953-0.129c0.006-3.067,0.294-6.288,1.01-9.395
			c-0.399,0.546-0.785,1.099-1.158,1.661c-7.191,10.842-6.456,25.232,1.994,35.273c6.423,7.633,17,11.782,26.866,11.326
			c1.952-0.09,9.368-0.09,11.32,0c9.866,0.456,20.443-3.694,26.866-11.326C141.118,167.024,141.853,152.634,134.662,141.792z"/>
		<g>
			<g>
				<path style="fill:#5F463B;" d="M126.038,156.328c-0.06,0-0.12-0.014-0.175-0.046c-0.176-0.097-0.241-0.318-0.143-0.493
					c0.096-0.176,9.905-17.467,34.088-14.764c0.2,0.023,0.343,0.203,0.321,0.403c-0.022,0.2-0.191,0.336-0.403,0.321
					c-23.678-2.656-33.276,14.22-33.37,14.391C126.29,156.259,126.166,156.328,126.038,156.328z"/>
				<path style="fill:#5F463B;" d="M127.022,158.534c-0.116,0-0.229-0.055-0.3-0.158c-0.114-0.166-0.071-0.392,0.095-0.506
					c0.156-0.106,15.869-10.624,40.653-5.645c0.197,0.039,0.324,0.231,0.284,0.428c-0.039,0.197-0.225,0.334-0.428,0.284
					c-24.465-4.911-39.944,5.427-40.098,5.533C127.165,158.513,127.093,158.534,127.022,158.534z"/>
				<path style="fill:#5F463B;" d="M162.529,170.146c-0.064,0-0.127-0.016-0.185-0.05c-21.127-12.434-35.05-7.98-35.188-7.933
					c-0.191,0.064-0.398-0.038-0.461-0.228c-0.064-0.19,0.038-0.397,0.228-0.461c0.142-0.047,14.351-4.622,35.791,7.996
					c0.173,0.102,0.231,0.325,0.129,0.498C162.774,170.082,162.653,170.146,162.529,170.146z"/>
			</g>
			<g>
				<path style="fill:#5F463B;" d="M74.247,156.328c-0.128,0-0.252-0.068-0.318-0.188c-0.095-0.171-9.718-17.05-33.37-14.392
					c-0.212,0.01-0.38-0.121-0.403-0.321c-0.022-0.2,0.121-0.38,0.321-0.403c24.171-2.704,33.993,14.589,34.088,14.764
					c0.098,0.175,0.033,0.397-0.143,0.493C74.367,156.313,74.306,156.328,74.247,156.328z"/>
				<path style="fill:#5F463B;" d="M73.263,158.534c-0.071,0-0.143-0.021-0.206-0.063c-0.153-0.105-15.633-10.443-40.098-5.533
					c-0.202,0.048-0.389-0.087-0.428-0.284c-0.04-0.197,0.087-0.389,0.284-0.428c24.779-4.976,40.497,5.538,40.653,5.645
					c0.166,0.114,0.208,0.34,0.095,0.506C73.493,158.479,73.379,158.534,73.263,158.534z"/>
				<path style="fill:#5F463B;" d="M37.756,170.146c-0.124,0-0.245-0.064-0.313-0.179c-0.102-0.173-0.045-0.396,0.129-0.498
					c11.19-6.585,20.307-8.414,25.984-8.787c6.187-0.406,9.661,0.743,9.806,0.791c0.19,0.064,0.292,0.271,0.228,0.461
					c-0.064,0.19-0.272,0.293-0.461,0.228c-0.138-0.047-14.06-4.502-35.188,7.933C37.883,170.13,37.819,170.146,37.756,170.146z"/>
			</g>
		</g>
		<g>
			<g>
				<g>
					<path style="fill:#433F37;" d="M100.143,174.248c-0.445,0-0.805-0.361-0.805-0.805v-13.881c0-0.445,0.36-0.805,0.805-0.805
						c0.445,0,0.805,0.361,0.805,0.805v13.881C100.948,173.888,100.588,174.248,100.143,174.248z"/>
					<path style="fill:#433F37;" d="M90.757,183.207c-0.372,0-0.706-0.259-0.787-0.638c-0.092-0.435,0.186-0.863,0.62-0.955
						c2.63-0.559,8.747-2.556,8.747-9.014c0-0.445,0.36-0.805,0.805-0.805c0.445,0,0.805,0.361,0.805,0.805
						c0,5.297-3.747,9.256-10.022,10.589C90.868,183.202,90.812,183.207,90.757,183.207z"/>
					<path style="fill:#433F37;" d="M109.528,183.207c-0.055,0-0.112-0.005-0.168-0.018c-6.276-1.333-10.022-5.292-10.022-10.589
						c0-0.445,0.36-0.805,0.805-0.805c0.445,0,0.805,0.361,0.805,0.805c0,6.458,6.117,8.455,8.747,9.014
						c0.435,0.092,0.712,0.52,0.62,0.955C110.234,182.948,109.9,183.207,109.528,183.207z"/>
				</g>
			</g>
		</g>
		<path style="fill:#433F37;" d="M111.155,149.001c-5.162-1.505-10.717-1.757-16.034-1.064c-3.131,0.407-6.375,1.168-9.319,2.497
			c-3.441,7.365,3.224,16.949,11.078,16.707h6.524c7.947,0.245,14.682-9.571,10.957-16.968
			C113.318,149.718,112.248,149.32,111.155,149.001z"/>
	</g>
	<g>
		<g>
			<g>
				<g>
					<path style="fill:#312017;" d="M64.991,72.998c-0.265,0-0.529-0.108-0.72-0.32c-0.358-0.397-0.329-1.008,0.067-1.367
						c0.075-0.069,7.681-6.801,17.814-0.9c0.462,0.27,0.619,0.864,0.35,1.327c-0.271,0.463-0.862,0.619-1.327,0.35
						c-8.872-5.171-15.267,0.42-15.535,0.661C65.454,72.916,65.222,72.998,64.991,72.998z"/>
				</g>
			</g>
			<g>
				
					<ellipse transform="matrix(0.7071 -0.7071 0.7071 0.7071 -39.7596 78.8913)" style="fill:#FFFFFF;" cx="75.35" cy="87.44" rx="12.237" ry="12.237"/>
				
					<ellipse transform="matrix(0.7071 -0.7071 0.7071 0.7071 -39.7596 78.8913)" style="fill:#62493E;" cx="75.35" cy="87.44" rx="9.759" ry="9.759"/>
				<path style="fill:#312017;" d="M81.341,87.659c0,3.308-2.682,5.99-5.99,5.99c-3.308,0-5.99-2.682-5.99-5.99
					c0-3.309,2.682-5.991,5.99-5.991C78.659,81.669,81.341,84.351,81.341,87.659z"/>
				<circle style="fill:#FFFFFF;" cx="71.811" cy="83.222" r="1.727"/>
				<circle style="fill:#FFFFFF;" cx="68.767" cy="88.07" r="1.316"/>
			</g>
		</g>
		<g>
			<g>
				<g>
					<path style="fill:#312017;" d="M115.468,72.998c-0.265,0-0.529-0.108-0.72-0.32c-0.358-0.397-0.329-1.008,0.067-1.367
						c0.075-0.069,7.681-6.801,17.814-0.9c0.462,0.27,0.619,0.864,0.35,1.327c-0.27,0.463-0.862,0.619-1.327,0.35
						c-8.87-5.169-15.267,0.421-15.535,0.661C115.932,72.916,115.699,72.998,115.468,72.998z"/>
				</g>
			</g>
			<g>
				
					<ellipse transform="matrix(0.2298 -0.9732 0.9732 0.2298 11.8173 189.8113)" style="fill:#FFFFFF;" cx="125.827" cy="87.44" rx="12.237" ry="12.237"/>
				
					<ellipse transform="matrix(0.1602 -0.9871 0.9871 0.1602 19.3612 197.6359)" style="fill:#62493E;" cx="125.827" cy="87.44" rx="9.759" ry="9.759"/>
				<path style="fill:#312017;" d="M131.818,87.659c0,3.308-2.682,5.99-5.99,5.99s-5.99-2.682-5.99-5.99
					c0-3.309,2.682-5.991,5.99-5.991S131.818,84.351,131.818,87.659z"/>
				<path style="fill:#FFFFFF;" d="M124.015,83.222c0,0.954-0.773,1.727-1.727,1.727c-0.954,0-1.727-0.773-1.727-1.727
					s0.773-1.727,1.727-1.727C123.242,81.494,124.015,82.268,124.015,83.222z"/>
				<circle style="fill:#FFFFFF;" cx="119.244" cy="88.07" r="1.316"/>
			</g>
		</g>
	</g>
</g>
</svg>
