<?xml version="1.0" encoding="utf-8"?>
<!-- Generator: Adobe Illustrator 27.5.0, SVG Export Plug-In . SVG Version: 6.00 Build 0)  -->
<svg version="1.1" id="Layer_1" xmlns="http://www.w3.org/2000/svg" xmlns:xlink="http://www.w3.org/1999/xlink" x="0px" y="0px"
	 viewBox="0 0 256.642 275.795" style="enable-background:new 0 0 256.642 275.795;" xml:space="preserve">
<g>
	<path style="fill:#C5CFD8;" d="M100.573,217.142c-0.014-0.002-0.029-0.004-0.041-0.006c-2.586,9.65,16.609,22.351,22.928,27.363
		c26.195,20.783,66.555,17.68,93.613,0.566c7.229-4.572,14.701-10.658,20.158-17.291c6.207-7.544,14.244-22.127,13.475-32.347
		c-1.207-16.002-18.824-22.656-32.631-16.633c-14.932,6.514-22.26,19.965-33.207,31.193c-10.543,10.813-26.904,18.023-42.16,14.841
		c-8.619-1.799-18.258-7.958-23.894-14.74C118.269,209.435,102.837,217.351,100.573,217.142z"/>
	<g>
		<path style="fill:#3A4450;" d="M249.028,206.358c1.24-3.843,1.928-7.617,1.678-10.932c-1.207-16.002-18.824-22.656-32.631-16.633
			c-1.195,0.521-2.326,1.103-3.43,1.708C230.036,181.367,243.876,191.877,249.028,206.358z"/>
		<path style="fill:#3A4450;" d="M189.384,256.518c6.51-1.529,12.826-3.73,18.725-6.535c-2.467-6.67-5.455-13.143-9.297-19.129
			c-4.516-7.037-10.361-12.831-16.051-18.826c-3.686,3.377-7.955,6.307-12.549,8.582
			C177.186,232.254,183.003,244.542,189.384,256.518z"/>
		<path style="fill:#3A4450;" d="M142.466,224.77c-0.77,10.195-0.41,20.486,1.369,30.506c7.791,2.518,16.057,3.711,24.383,3.713
			c-5.494-10.758-10.223-22.094-12.471-33.807c-4.33,0.607-8.729,0.545-13.039-0.354
			C142.628,224.811,142.546,224.788,142.466,224.77z"/>
		<path style="fill:#3A4450;" d="M105.337,229.12c3.951,4.518,9.475,8.824,13.73,12.039c0.16-0.305,0.318-0.609,0.482-0.912
			c2.619-4.883,5.303-9.781,8.281-14.453c1.162-1.824,2.35-3.637,3.52-5.461c-2.824-1.606-5.512-3.513-7.906-5.579
			C117.038,219.169,110.671,223.7,105.337,229.12z"/>
		<path style="fill:#3A4450;" d="M238.724,225.469c-4.619-16.213-18.707-31.357-35.051-36.674c-2.857,2.782-5.482,5.81-8.084,8.904
			c13.574,10.795,24.371,24.544,30.984,40.506c3.916-3.197,7.607-6.723,10.658-10.432c0.529-0.645,1.072-1.342,1.621-2.08
			C238.798,225.635,238.751,225.565,238.724,225.469z"/>
	</g>
	<g>
		<g>
			<g>
				<path style="fill:#63707C;" d="M123.854,190.898h48.293l-6.734,62.566c3.146,3.385,5.066,7.08,5.066,8.951
					c0,3.969-8.637,7.186-19.291,7.186c-10.654,0-19.291-3.217-19.291-7.186c0-0.063,0.01-0.135,0.014-0.201L123.854,190.898z"/>
				<path style="fill:#3A4450;" d="M166.827,267.122c0.234,0,0.445-0.168,0.49-0.408c0.742-3.949-2.578-7.211-2.721-7.348
					c-0.199-0.189-0.514-0.185-0.707,0.012c-0.191,0.199-0.186,0.516,0.012,0.707c0.031,0.029,3.074,3.031,2.434,6.443
					c-0.051,0.271,0.127,0.533,0.398,0.584C166.765,267.118,166.796,267.122,166.827,267.122z"/>
				<path style="fill:#3A4450;" d="M161.108,268.625c0.234,0,0.445-0.168,0.49-0.408c0.742-3.949-2.578-7.211-2.721-7.348
					c-0.199-0.189-0.514-0.188-0.707,0.012c-0.191,0.199-0.186,0.516,0.012,0.707c0.031,0.029,3.074,3.031,2.434,6.443
					c-0.051,0.271,0.127,0.533,0.398,0.584C161.046,268.622,161.077,268.625,161.108,268.625z"/>
				<path style="fill:#3A4450;" d="M153.927,270.164c0.234,0,0.445-0.168,0.49-0.408c0.66-3.516-2.291-6.416-2.418-6.537
					c-0.199-0.191-0.514-0.188-0.707,0.012c-0.191,0.197-0.186,0.514,0.012,0.707c0.027,0.025,2.691,2.652,2.131,5.633
					c-0.051,0.271,0.127,0.533,0.398,0.584C153.864,270.161,153.895,270.164,153.927,270.164z"/>
			</g>
		</g>
		<g>
			<g>
				<path style="fill:#63707C;" d="M113.04,190.898H64.747l6.734,62.566c-3.146,3.385-5.066,7.08-5.066,8.951
					c0,3.969,8.637,7.186,19.291,7.186s19.291-3.217,19.291-7.186c0-0.063-0.01-0.135-0.014-0.201L113.04,190.898z"/>
				<path style="fill:#3A4450;" d="M70.067,267.122c-0.234,0-0.445-0.168-0.49-0.408c-0.742-3.949,2.578-7.211,2.721-7.348
					c0.199-0.189,0.514-0.185,0.707,0.012c0.191,0.199,0.186,0.516-0.012,0.707c-0.031,0.029-3.074,3.031-2.434,6.443
					c0.051,0.271-0.127,0.533-0.398,0.584C70.13,267.118,70.099,267.122,70.067,267.122z"/>
				<path style="fill:#3A4450;" d="M75.786,268.625c-0.234,0-0.445-0.168-0.49-0.408c-0.742-3.949,2.578-7.211,2.721-7.348
					c0.199-0.189,0.514-0.188,0.707,0.012c0.191,0.199,0.186,0.516-0.012,0.707c-0.031,0.029-3.074,3.031-2.434,6.443
					c0.051,0.271-0.127,0.533-0.398,0.584C75.849,268.622,75.817,268.625,75.786,268.625z"/>
				<path style="fill:#3A4450;" d="M82.968,270.164c-0.234,0-0.445-0.168-0.49-0.408c-0.66-3.516,2.291-6.416,2.418-6.537
					c0.199-0.191,0.514-0.188,0.707,0.012c0.191,0.197,0.186,0.514-0.012,0.707c-0.027,0.025-2.691,2.652-2.131,5.633
					c0.051,0.271-0.127,0.533-0.398,0.584C83.03,270.161,82.999,270.164,82.968,270.164z"/>
			</g>
		</g>
	</g>
	<g>
		<g>
			<g>
				<g>
					<path style="fill:#3A4450;" d="M215.964,170.831c0.922,1.236,2.445,1.661,3.4,0.948c0.955-0.713,0.98-2.294,0.059-3.529
						c-0.924-1.237-2.445-1.662-3.4-0.948C215.067,168.015,215.042,169.596,215.964,170.831z"/>
					<path style="fill:#3A4450;" d="M225.708,167.054c1.182,1.587,3.137,2.131,4.361,1.217c1.227-0.915,1.258-2.942,0.074-4.527
						c-1.183-1.587-3.137-2.132-4.361-1.217C224.558,163.44,224.524,165.469,225.708,167.054z"/>
					<path style="fill:#3A4450;" d="M220.939,170.439c1.203,1.61,3.185,2.163,4.428,1.235c1.242-0.929,1.275-2.984,0.076-4.594
						c-1.201-1.608-3.184-2.161-4.428-1.233C219.774,166.775,219.739,168.832,220.939,170.439z"/>
				</g>
				<g>
					<g>
						<g>
							<path style="fill:#63707C;" d="M192.643,98.479c14.42,1.622,30.533,32.708,34.447,45.037
								c1.236,3.896,7.674,17.96,0.791,23.325c-2.854,2.225-6.336,3.795-9.855,3.172c-5.617-0.994-16.875-15.158-19.385-18.337
								c-4.959-6.28-9.65-12.799-14.215-19.368c-1.779-2.561-3.559-5.117-5.295-7.707C168.952,109.403,182.524,97.34,192.643,98.479
								z"/>
						</g>
					</g>
					<path style="fill:#3A4450;" d="M212.936,165.564c0.777,2.411,4.012,3.525,7.223,2.49c3.211-1.038,5.184-3.834,4.404-6.243
						c-0.777-2.411-4.012-3.526-7.225-2.49C214.128,160.357,212.157,163.153,212.936,165.564z"/>
				</g>
			</g>
		</g>
		<g>
			<g>
				<g>
					<path style="fill:#3A4450;" d="M20.931,170.831c-0.922,1.236-2.445,1.661-3.4,0.948c-0.955-0.713-0.98-2.294-0.059-3.529
						c0.924-1.237,2.445-1.662,3.4-0.948C21.827,168.015,21.853,169.596,20.931,170.831z"/>
					<path style="fill:#3A4450;" d="M11.186,167.054c-1.182,1.587-3.137,2.131-4.361,1.217c-1.227-0.915-1.258-2.942-0.074-4.527
						c1.184-1.587,3.137-2.132,4.361-1.217C12.337,163.44,12.37,165.469,11.186,167.054z"/>
					<path style="fill:#3A4450;" d="M15.956,170.439c-1.203,1.61-3.186,2.163-4.428,1.235c-1.242-0.929-1.275-2.984-0.076-4.594
						c1.201-1.608,3.184-2.161,4.428-1.233C17.12,166.775,17.155,168.832,15.956,170.439z"/>
				</g>
				<g>
					<g>
						<g>
							<path style="fill:#63707C;" d="M44.251,98.479c-14.42,1.622-30.533,32.708-34.447,45.037
								c-1.236,3.896-7.674,17.96-0.791,23.325c2.854,2.225,6.336,3.795,9.856,3.172c5.617-0.994,16.875-15.158,19.385-18.337
								c4.959-6.28,9.65-12.799,14.215-19.368c1.779-2.561,3.559-5.117,5.295-7.707C67.942,109.403,54.37,97.34,44.251,98.479z"/>
						</g>
					</g>
					<path style="fill:#3A4450;" d="M23.958,165.564c-0.777,2.411-4.012,3.525-7.223,2.49c-3.211-1.038-5.184-3.834-4.404-6.243
						c0.777-2.411,4.012-3.526,7.225-2.49C22.767,160.357,24.737,163.153,23.958,165.564z"/>
				</g>
			</g>
		</g>
	</g>
	<g>
		<g>
			<path style="fill:#63707C;" d="M99.837,24.292c0,0-43.764-28.627-49.283-14.969c-6.049,14.972,6.232,53.778,6.232,53.778
				S77.38,49.592,99.837,24.292z"/>
			<path style="fill:#3A4450;" d="M83.526,37.891c0,0-22.535-29.55-26.652-19.366c-4.51,11.165,4.646,40.102,4.646,40.102
				S66.782,56.758,83.526,37.891z"/>
		</g>
		<g>
			<path style="fill:#63707C;" d="M138.561,24.292c0,0,43.764-28.627,49.283-14.969c6.049,14.972-6.232,53.778-6.232,53.778
				S161.018,49.592,138.561,24.292z"/>
			<path style="fill:#3A4450;" d="M154.872,37.891c0,0,22.535-29.55,26.652-19.366c4.51,11.165-4.646,40.102-4.646,40.102
				S171.616,56.758,154.872,37.891z"/>
		</g>
	</g>
	<path style="fill:#74808E;" d="M198.31,80.464l10.666,2.419c-3.666-8.747-13.5-12.586-13.5-12.586c5-0.666,7.742-4.667,7.742-4.667
		c-17.09-1.333-27.742-14.332-27.742-14.332l0,0c-15.381-21.829-35.285-36.947-57.027-36.947c-21.771,0-41.695,15.155-57.086,37.027
		l0.008-0.08c0,0-10.652,12.999-27.744,14.332c0,0,2.742,4.001,7.742,4.667c0,0-9.832,3.839-13.5,12.586l10.668-2.419
		c0,0-0.768,4.719,2.721,9.734c-7.043,18.984-11.059,39.135-11.059,57.396c0,57.314,39.51,89.255,88.25,89.255
		c48.738,0,88.25-31.942,88.25-89.255c0-18.277-4.023-38.445-11.078-57.443C199.071,85.152,198.31,80.464,198.31,80.464z"/>
	<g>
		<path style="fill:#C5CFD8;" d="M169.989,44.255c-0.209-0.258-8.381-5.057-15.131-9.889s-24.354-14.957-28.178-8.332
			c-3.822,6.625-3.858,27.377-3.858,27.377l-1.34,53.459c0,0,51.135,4.766,74.191-16.098c0,0,0.088,0.05,0.213,0.12
			c-0.09-0.247-0.176-0.495-0.268-0.741c3.451-4.999,2.689-9.688,2.689-9.688l10.666,2.419c-3.666-8.747-13.5-12.586-13.5-12.586
			c5-0.666,7.742-4.667,7.742-4.667c-17.09-1.333-27.742-14.332-27.742-14.332c-1.727-2.452-3.516-4.813-5.354-7.085
			C170.061,44.265,170.015,44.284,169.989,44.255z"/>
		<path style="fill:#C5CFD8;" d="M115.239,106.87l-1.34-53.459c0,0-0.035-20.752-3.857-27.377c-3.824-6.625-21.428,3.5-28.178,8.332
			c-6.697,4.794-14.783,9.55-15.115,9.876c-1.85,2.286-3.648,4.666-5.387,7.136l0.008-0.08c0,0-10.652,12.999-27.744,14.332
			c0,0,2.742,4.001,7.742,4.667c0,0-9.832,3.839-13.5,12.586l10.668-2.419c0,0-0.768,4.719,2.721,9.734
			c-0.07,0.191-0.137,0.385-0.207,0.576C64.108,111.636,115.239,106.87,115.239,106.87z"/>
	</g>
	<path style="fill:#C5CFD8;" d="M182.337,188.512c0,31.04-28.605,48.338-63.889,48.338c-35.285,0-63.889-17.298-63.889-48.338
		c0-31.039,28.604-72.161,63.889-72.161C153.731,116.351,182.337,157.473,182.337,188.512z"/>
	<g>
		<path style="fill:#3A4450;" d="M57.546,100.412c-0.041,0-0.082-0.005-0.123-0.016c-9.115-2.297-15.152-6.415-17.941-12.24
			c-0.119-0.249-0.014-0.548,0.234-0.667c0.248-0.12,0.549-0.015,0.668,0.235C43.69,94.631,51.608,97.9,57.667,99.428
			c0.268,0.067,0.43,0.339,0.363,0.607C57.972,100.261,57.769,100.412,57.546,100.412z"/>
		<path style="fill:#3A4450;" d="M179.308,100.412c0.041,0,0.082-0.005,0.123-0.016c9.115-2.297,15.152-6.415,17.941-12.24
			c0.119-0.249,0.014-0.548-0.234-0.667c-0.248-0.12-0.549-0.015-0.668,0.235c-3.307,6.906-11.225,10.176-17.283,11.703
			c-0.268,0.067-0.43,0.339-0.363,0.607C178.882,100.261,179.085,100.412,179.308,100.412z"/>
	</g>
	<g>
		<path style="fill:#3A4450;" d="M168.893,48.947c-6.902-5.61-13.465-11.966-22.094-14.834c-9.121-3.031-18.182,2.079-19.291,11.902
			c-0.846,7.475,3.447,15.091,8.984,19.926c8.033,7.015,17.889,11.35,28.26,13.521c8.145,1.707,16.457,2.069,24.627,3.501
			c2.057,0.361,5.488,1.163,8.426,2.604c0.85-2.945,0.504-5.104,0.504-5.104l10.666,2.419c-3.666-8.747-13.5-12.586-13.5-12.586
			c5-0.666,7.742-4.667,7.742-4.667c-8-0.624-14.59-3.805-19.336-7.012c-1.133-0.044-2.926-1.355-3.836-1.846
			C176.038,54.615,172.417,51.811,168.893,48.947z"/>
		<path style="fill:#3A4450;" d="M72.142,79.463c10.371-2.172,20.227-6.507,28.26-13.521c5.537-4.835,9.83-12.451,8.984-19.926
			c-1.109-9.823-10.17-14.934-19.291-11.902c-8.629,2.868-15.191,9.224-22.094,14.834c-3.523,2.863-7.145,5.668-11.152,7.825
			c-0.926,0.498-2.768,1.854-3.896,1.854l0,0c-4.746,3.204-11.33,6.381-19.326,7.004c0,0,2.742,4.001,7.742,4.667
			c0,0-9.832,3.839-13.5,12.586l10.668-2.419c0,0-0.35,2.169,0.51,5.126c2.947-1.454,6.402-2.263,8.469-2.626
			C55.685,81.532,63.997,81.17,72.142,79.463z"/>
	</g>
	<g>
		<g>
			<path style="fill:#0D0E0F;" d="M102.294,47.769c0,3.544-2.873,6.417-6.416,6.417c-3.545,0-6.418-2.873-6.418-6.417
				c0-3.544,2.873-6.417,6.418-6.417C99.421,41.352,102.294,44.225,102.294,47.769z"/>
			<circle style="fill:#FFFFFF;" cx="93.421" cy="45.769" r="2"/>
			<circle style="fill:#FFFFFF;" cx="92.296" cy="49.977" r="0.875"/>
		</g>
		<g>
			<path style="fill:#0D0E0F;" d="M147.435,47.769c0,3.544-2.873,6.417-6.416,6.417c-3.545,0-6.418-2.873-6.418-6.417
				c0-3.544,2.873-6.417,6.418-6.417C144.561,41.352,147.435,44.225,147.435,47.769z"/>
			<circle style="fill:#FFFFFF;" cx="138.561" cy="45.769" r="2"/>
			<path style="fill:#FFFFFF;" d="M138.31,49.977c0,0.483-0.391,0.875-0.873,0.875c-0.484,0-0.875-0.392-0.875-0.875
				c0-0.483,0.391-0.875,0.875-0.875C137.919,49.102,138.31,49.494,138.31,49.977z"/>
		</g>
	</g>
	<g>
		<g>
			<path style="fill:#E9EFF4;" d="M148.151,74.362c0-14.015-13.299-21.141-29.703-21.141c-16.406,0-29.705,7.126-29.705,21.141
				c0,14.015,13.299,32.508,29.705,32.508C134.852,106.87,148.151,88.377,148.151,74.362z"/>
		</g>
		<g>
			<g>
				<path style="fill:#3A4450;" d="M110.685,105.521c-3.959,0-7.361-3.794-8.092-9.022c-0.027-0.215,0.123-0.412,0.334-0.442
					c0.209-0.027,0.414,0.118,0.442,0.334c0.676,4.837,3.752,8.347,7.316,8.347c3.564,0,6.643-3.51,7.316-8.347
					c0.029-0.214,0.232-0.358,0.443-0.334c0.213,0.03,0.363,0.228,0.334,0.442C118.048,101.727,114.647,105.521,110.685,105.521z"/>
				<path style="fill:#3A4450;" d="M126.212,105.521c-3.961,0-7.365-3.794-8.092-9.022c-0.029-0.215,0.117-0.412,0.332-0.442
					c0.211-0.027,0.412,0.118,0.443,0.334c0.674,4.837,3.75,8.347,7.316,8.347c3.564,0,6.641-3.51,7.314-8.347
					c0.029-0.214,0.234-0.358,0.441-0.334c0.215,0.03,0.365,0.228,0.334,0.442C133.573,101.727,130.171,105.521,126.212,105.521z"/>
			</g>
		</g>
		<g>
			<path style="fill:#272E35;" d="M129.247,87.419c0-4.584-4.836-5.279-10.801-5.279c-5.963,0-10.799,0.695-10.799,5.279
				c0,4.585,4.836,10.634,10.799,10.634C124.411,98.053,129.247,92.004,129.247,87.419z"/>
		</g>
		<g>
			<path style="fill:#3A4450;" d="M127.353,96.709c-0.197,0-0.385-0.119-0.463-0.314c-0.104-0.256,0.021-0.547,0.277-0.649
				c0.088-0.035,8.82-3.494,17.064-3.829c0.285,0.011,0.51,0.204,0.521,0.479c0.01,0.276-0.205,0.509-0.48,0.521
				c-8.076,0.327-16.649,3.723-16.734,3.757C127.478,96.697,127.415,96.709,127.353,96.709z"/>
			<path style="fill:#3A4450;" d="M146.739,99.25c-0.037,0-0.074-0.004-0.111-0.013c-8.828-2.04-19.117-0.91-19.219-0.896
				c-0.274,0.025-0.521-0.166-0.553-0.44c-0.031-0.274,0.166-0.522,0.439-0.554c0.105-0.011,10.559-1.16,19.557,0.916
				c0.27,0.063,0.436,0.331,0.375,0.6C147.173,99.094,146.968,99.25,146.739,99.25z"/>
			<path style="fill:#3A4450;" d="M142.98,104.189c-0.07,0-0.141-0.015-0.207-0.045c-6.94-3.144-15.6-3.915-15.688-3.923
				c-0.273-0.024-0.479-0.266-0.455-0.541c0.025-0.275,0.266-0.468,0.541-0.455c0.088,0.008,8.92,0.794,16.014,4.009
				c0.252,0.113,0.363,0.41,0.25,0.661C143.351,104.08,143.169,104.189,142.98,104.189z"/>
		</g>
		<g>
			<path style="fill:#3A4450;" d="M109.542,96.709c-0.063,0-0.125-0.012-0.186-0.036c-0.086-0.034-8.664-3.43-16.734-3.757
				c-0.275-0.012-0.49-0.244-0.48-0.521c0.012-0.275,0.238-0.467,0.521-0.479c8.244,0.335,16.977,3.794,17.064,3.829
				c0.256,0.103,0.381,0.394,0.277,0.649C109.927,96.59,109.739,96.709,109.542,96.709z"/>
			<path style="fill:#3A4450;" d="M90.155,99.25c-0.229,0-0.434-0.156-0.488-0.388c-0.061-0.269,0.105-0.537,0.375-0.6
				c8.998-2.077,19.451-0.927,19.557-0.916c0.273,0.031,0.471,0.279,0.439,0.554c-0.031,0.274-0.281,0.468-0.553,0.44
				c-0.102-0.014-10.389-1.143-19.219,0.896C90.229,99.246,90.192,99.25,90.155,99.25z"/>
			<path style="fill:#3A4450;" d="M93.915,104.189c-0.189,0-0.371-0.109-0.455-0.294c-0.113-0.251-0.002-0.548,0.25-0.661
				c7.094-3.215,15.926-4.001,16.014-4.009c0.27-0.02,0.516,0.18,0.541,0.455c0.023,0.275-0.182,0.517-0.455,0.541
				c-0.088,0.008-8.752,0.781-15.688,3.923C94.056,104.175,93.985,104.189,93.915,104.189z"/>
		</g>
	</g>
</g>
</svg>
